<?xml version="1.0" standalone="no"?>
<!DOCTYPE svg PUBLIC "-//W3C//DTD SVG 20010904//EN"
 "http://www.w3.org/TR/2001/REC-SVG-20010904/DTD/svg10.dtd">
<svg version="1.0" xmlns="http://www.w3.org/2000/svg"
 width="2000.000000pt" height="2000.000000pt" viewBox="0 0 2000.000000 2000.000000"
 preserveAspectRatio="xMidYMid meet">
<metadata>
Created by potrace 1.14, written by Peter Selinger 2001-2017
</metadata>
<g transform="translate(0.000000,2000.000000) scale(0.100000,-0.100000)"
fill="#000000" stroke="none">
<path d="M709 12906 c-332 -96 -443 -499 -211 -758 25 -27 38 -48 30 -49 -83
-5 -230 -84 -316 -171 -82 -82 -151 -205 -167 -300 -3 -17 -8 -35 -11 -40 -12
-19 -7 -324 6 -363 37 -115 131 -187 260 -201 36 -3 66 -8 68 -9 2 -2 3 -326
4 -721 0 -821 -3 -785 79 -865 82 -80 186 -98 292 -51 23 11 54 31 68 45 l26
27 24 -26 c45 -48 97 -69 174 -68 101 0 167 38 226 129 l26 40 819 0 819 -1
330 198 c181 109 331 201 332 205 1 5 -145 96 -325 203 l-327 195 -820 5 -820
5 0 139 0 139 57 13 c104 24 177 88 213 186 17 47 18 84 18 382 0 182 -4 353
-7 380 -30 214 -188 415 -391 496 -33 13 -62 25 -64 26 -2 2 13 20 33 40 118
118 163 277 126 439 -28 124 -136 251 -260 308 -56 26 -79 30 -165 33 -63 2
-117 -1 -146 -10z m277 -137 c75 -38 127 -90 160 -163 83 -181 -6 -396 -192
-466 -170 -63 -358 17 -435 185 -24 53 -27 70 -25 145 2 100 25 158 89 227
103 112 267 141 403 72z m86 -784 c97 -24 168 -65 239 -136 62 -61 121 -157
134 -216 3 -13 8 -33 11 -45 11 -39 14 -690 3 -730 -5 -21 -26 -53 -46 -73
-31 -30 -47 -37 -113 -49 -3 -1 -6 199 -6 444 -1 245 -2 452 -3 462 -1 13 -11
16 -53 15 l-53 -2 -5 -1047 c-5 -1044 -5 -1047 -26 -1075 -24 -33 -68 -60
-106 -67 -34 -6 -105 30 -132 67 -21 28 -21 41 -24 609 -2 398 1 584 8 588 6
4 42 5 80 4 45 -2 72 2 77 9 12 19 10 906 -2 910 -5 2 -161 3 -345 3 -260 -1
-335 -4 -336 -13 -1 -7 -2 -60 -3 -117 l-1 -104 -50 3 c-29 2 -53 -2 -57 -8
-4 -6 -7 -33 -8 -59 l0 -47 268 -3 c269 -3 269 -3 288 -27 41 -50 7 -140 -53
-142 -13 0 -125 0 -250 0 -266 0 -292 7 -344 86 -16 25 -19 49 -20 169 -1 160
11 232 55 319 75 152 231 264 394 283 29 4 53 7 54 8 1 0 83 0 184 -1 123 -2
201 -7 241 -18z m-122 -582 l0 -138 -21 43 c-26 52 -79 97 -128 109 -20 5 -98
9 -173 8 l-138 -1 0 58 0 58 230 0 230 0 0 -137z m0 -388 l0 -165 -229 0 -229
0 -4 69 c-5 109 -16 101 140 101 75 0 154 5 175 11 49 13 113 71 129 115 6 19
13 34 15 34 2 0 3 -74 3 -165z m-180 -284 c3 -1 5 -261 5 -578 -1 -637 1 -616
-64 -660 -46 -31 -113 -31 -158 0 -65 44 -63 26 -63 657 0 315 2 575 4 578 3
5 250 8 276 3z m2080 -631 l0 -115 -777 0 -778 0 -1 110 c0 61 1 112 2 115 1
3 351 5 778 5 l776 0 0 -115z m503 -184 c-10 -7 -66 -41 -126 -77 -59 -35
-139 -83 -178 -106 -39 -24 -74 -43 -77 -43 -6 0 -8 414 -3 467 1 7 91 -42
202 -108 176 -106 198 -123 182 -133z m-503 -161 l0 -115 -778 0 -778 0 2 108
c1 59 2 110 3 115 0 4 350 7 776 7 l775 0 0 -115z"/>
<path d="M4623 12862 c-77 -66 -172 -168 -174 -185 -4 -32 -5 -2304 -1 -2315
7 -21 168 -103 270 -137 175 -60 311 -79 547 -79 410 1 678 116 839 358 66
100 126 271 142 404 3 31 8 66 10 77 7 35 6 227 -1 300 -15 159 -79 349 -154
458 -67 97 -197 197 -298 230 -154 49 -361 53 -513 11 -77 -22 -172 -77 -239
-140 l-57 -53 0 437 1 436 -26 40 c-28 43 -128 143 -190 189 -54 41 -79 36
-156 -31z m816 -1306 c96 -26 163 -82 205 -171 37 -79 48 -141 51 -274 6 -298
-93 -477 -291 -530 -52 -14 -164 -17 -229 -7 -60 10 -172 53 -178 69 -2 7 -3
174 -3 373 l1 361 43 56 c50 67 102 104 169 121 68 18 169 19 232 2z"/>
<path d="M6824 12870 c-90 -71 -178 -173 -184 -212 -8 -51 -4 -2104 4 -2186
10 -103 39 -190 89 -264 39 -59 44 -63 82 -64 22 -1 45 2 50 6 6 4 87 42 180
84 94 42 180 84 193 92 26 17 28 47 6 89 -8 17 -25 68 -36 115 -20 83 -20 115
-22 1115 -1 898 -3 1033 -16 1051 -65 91 -218 224 -258 224 -17 -1 -49 -18
-88 -50z"/>
<path d="M13435 12888 c-86 -69 -194 -183 -202 -213 -3 -16 -7 -176 -7 -355
l-1 -325 -25 1 c-14 1 -50 5 -80 9 -107 14 -289 11 -417 -9 -58 -8 -196 -47
-248 -69 -333 -141 -500 -442 -498 -897 1 -229 57 -442 156 -590 16 -25 62
-77 101 -115 123 -120 266 -176 456 -178 138 -1 220 9 302 37 104 36 161 74
225 149 31 35 34 36 47 20 89 -109 121 -145 136 -153 20 -11 328 -14 355 -4
42 16 41 2 41 1270 l-1 1211 -26 34 c-31 41 -129 136 -183 178 -49 39 -81 39
-131 -1z m-343 -1308 c24 -6 63 -20 88 -31 l46 -20 -1 -367 c-1 -415 3 -394
-82 -473 -73 -69 -143 -93 -273 -93 -91 -1 -111 2 -147 22 -144 76 -206 228
-198 482 2 63 11 142 19 174 22 78 70 168 115 213 45 44 144 92 207 100 27 3
50 6 51 7 7 6 138 -5 175 -14z"/>
<path d="M17489 12893 c-72 -57 -198 -193 -206 -223 -10 -37 -9 -2121 1 -2205
14 -125 75 -269 131 -314 31 -24 40 -21 185 44 223 100 290 135 297 151 4 10
-1 38 -11 63 -26 70 -45 140 -52 196 -4 28 -7 505 -8 1060 -1 1133 7 1017 -78
1105 -149 153 -193 174 -259 123z"/>
<path d="M16498 12896 c-48 -25 -248 -219 -299 -289 -34 -47 -32 -62 19 -127
53 -68 235 -243 274 -264 33 -18 36 -18 70 -2 38 18 243 214 293 280 38 50 39
63 8 110 -31 47 -218 235 -275 276 -47 34 -53 35 -90 16z"/>
<path d="M2893 12471 c-50 -50 -94 -91 -97 -91 -3 0 -6 6 -6 13 0 10 -90 13
-457 12 l-458 0 -3 -402 -2 -403 37 -1 c21 0 229 0 462 -1 l424 0 1 306 1 306
135 135 135 135 -41 41 -41 40 -90 -90z m-213 -196 c0 -9 -78 -94 -173 -190
l-174 -175 -94 95 -94 94 -43 -39 -42 -39 136 -137 136 -137 172 172 173 173
0 -186 c0 -126 -4 -187 -11 -188 -6 0 -161 -2 -343 -2 -217 -1 -334 2 -336 9
-2 9 -1 484 2 543 l1 22 345 0 c303 0 345 -2 345 -15z"/>
<path d="M3145 12401 c-3 -2 -5 -28 -5 -58 l0 -53 230 0 230 0 0 58 0 58 -225
0 c-124 0 -228 -2 -230 -5z"/>
<path d="M2910 12118 l0 -58 345 0 345 0 0 58 0 57 -345 0 -345 0 0 -57z"/>
<path d="M8507 12014 c-1 -1 -45 -4 -98 -8 -175 -11 -380 -80 -503 -169 -237
-172 -340 -414 -337 -792 0 -60 3 -121 6 -135 2 -13 7 -42 10 -65 51 -358 303
-607 690 -680 93 -18 315 -24 410 -12 321 41 557 188 687 427 25 47 58 124 63
150 2 8 10 42 18 75 43 168 41 424 -3 597 -69 273 -254 465 -535 556 -88 29
-128 37 -230 48 -56 5 -174 11 -178 8z m217 -463 c140 -69 193 -194 194 -456
1 -370 -114 -527 -388 -527 -229 -1 -354 113 -388 351 -9 61 -8 264 1 322 18
113 73 221 139 271 81 61 143 78 275 74 91 -2 108 -6 167 -35z"/>
<path d="M10677 12014 c-1 -1 -42 -4 -90 -8 -48 -4 -93 -9 -100 -11 -7 -2 -29
-7 -51 -10 -21 -3 -73 -17 -115 -31 -189 -64 -333 -180 -426 -344 -33 -58 -88
-207 -100 -267 -33 -177 -38 -400 -11 -552 56 -318 210 -519 464 -605 38 -13
97 -27 133 -31 70 -9 250 -9 277 -1 9 3 32 8 50 11 95 16 219 88 289 168 25
28 32 32 35 19 4 -19 -8 -163 -16 -203 -29 -136 -111 -235 -247 -298 -94 -44
-183 -60 -323 -57 -124 3 -194 20 -315 74 -52 24 -78 18 -148 -29 -80 -55
-133 -109 -133 -135 0 -67 76 -232 117 -255 54 -31 208 -75 303 -86 82 -10
356 -10 432 -1 349 44 625 217 761 479 46 87 86 214 101 314 2 17 8 50 11 74
4 25 7 389 8 809 0 757 0 763 -21 777 -37 26 -196 102 -259 124 -97 33 -209
56 -328 67 -59 5 -293 12 -298 8z m173 -429 c62 -8 163 -46 175 -65 3 -6 7
-173 7 -371 l1 -361 -39 -55 c-76 -107 -178 -150 -330 -140 -223 15 -329 152
-333 433 -7 419 167 607 519 559z"/>
<path d="M14947 12014 c-1 -1 -51 -4 -112 -8 -127 -7 -238 -32 -344 -76 -135
-56 -155 -79 -192 -237 -29 -122 -27 -125 83 -162 154 -50 155 -50 250 5 115
66 177 83 301 82 200 -1 297 -76 311 -240 l5 -55 -47 0 c-93 0 -276 -17 -377
-35 -33 -5 -73 -12 -88 -15 -45 -7 -179 -49 -238 -74 -179 -76 -299 -209 -334
-373 -13 -61 -14 -242 -1 -301 4 -16 23 -62 42 -102 100 -209 325 -306 629
-271 168 20 313 95 388 202 13 18 18 14 72 -55 90 -115 74 -109 268 -109 93 0
177 4 187 10 10 5 22 22 27 37 11 33 10 1093 -1 1173 -37 273 -169 453 -396
542 -81 32 -134 44 -235 54 -60 6 -194 11 -198 8z m297 -1129 c0 -90 -3 -106
-28 -152 -37 -68 -100 -131 -156 -155 -29 -13 -77 -22 -136 -25 -83 -5 -97 -3
-147 20 -73 33 -98 78 -92 165 5 92 38 142 119 184 87 45 198 65 351 64 l90
-1 -1 -100z"/>
<path d="M18345 11946 c-97 -77 -171 -152 -183 -186 -14 -41 -4 -173 23 -298
84 -398 347 -910 608 -1185 31 -32 61 -64 67 -72 9 -11 1 -30 -42 -91 -140
-204 -303 -299 -492 -287 -62 4 -67 1 -138 -62 -60 -54 -118 -132 -118 -158 0
-57 115 -207 180 -236 78 -35 272 -19 422 35 280 101 510 311 731 665 87 140
220 401 290 569 49 118 160 433 172 486 2 10 17 71 34 134 16 63 32 131 35
150 25 143 36 235 36 293 l0 68 -57 61 c-82 86 -199 178 -228 178 -39 0 -239
-171 -271 -232 -7 -15 -16 -67 -19 -116 -4 -87 -26 -251 -40 -302 -2 -8 -6
-33 -10 -55 -20 -141 -170 -615 -194 -615 -13 0 -80 76 -126 144 -113 167
-227 458 -259 661 -11 69 -17 124 -21 192 -4 83 -5 85 -62 146 -87 94 -200
177 -240 177 -10 0 -54 -29 -98 -64z"/>
<path d="M16276 11945 l-23 -24 1 -847 1 -846 24 -19 c21 -17 42 -19 205 -20
289 -1 298 0 312 43 4 13 8 394 9 848 1 880 2 871 -47 884 -13 3 -121 6 -241
6 l-218 0 -23 -25z"/>
<path d="M2914 11941 c-2 -2 -4 -28 -4 -58 l0 -53 345 0 346 0 -3 58 -3 57
-338 0 c-186 0 -340 -2 -343 -4z"/>
<path d="M2910 11658 l0 -58 53 -1 c66 0 619 0 630 0 13 1 8 111 -5 112 -7 1
-163 2 -345 3 l-333 1 0 -57z"/>
<path d="M1870 10965 l0 -404 460 0 c426 0 460 1 461 17 3 59 3 751 0 770 l-3
22 -459 0 -459 0 0 -405z m746 286 l61 -1 -1 -287 -1 -287 -330 -1 c-181 0
-337 1 -345 3 -13 3 -15 42 -14 285 l0 282 85 5 c72 4 177 4 545 1z"/>
<path d="M2910 11310 l0 -60 345 1 345 1 0 59 0 59 -345 0 -345 0 0 -60z"/>
<path d="M2910 11080 l0 -58 345 0 345 1 0 57 0 57 -345 0 -345 0 0 -57z"/>
<path d="M2910 10849 l0 -59 230 0 230 0 0 59 0 58 -230 0 -230 1 0 -59z"/>
<path d="M3488 10897 c-4 -10 -3 -70 1 -99 1 -5 26 -8 56 -8 l55 0 0 58 0 58
-54 2 c-35 1 -56 -3 -58 -11z"/>
<path d="M2910 10619 l0 -58 345 0 345 0 0 58 0 58 -345 0 -345 0 0 -58z"/>
<path d="M4063 8499 c-100 -19 -182 -92 -210 -189 -13 -45 -16 -108 -16 -360
0 -203 4 -324 12 -363 17 -79 61 -134 136 -172 55 -28 68 -30 165 -30 81 0
121 5 179 23 l73 23 -6 31 c-8 42 -10 43 -58 29 -154 -47 -288 -38 -352 23
-54 51 -59 84 -59 436 0 333 4 361 51 413 53 59 180 81 293 53 60 -16 64 -16
77 1 21 30 10 46 -48 66 -61 21 -172 28 -237 16z"/>
<path d="M14680 8492 c-14 -2 -16 -64 -15 -549 l0 -547 43 -1 42 -1 0 547 0
547 -27 4 c-16 2 -35 2 -43 0z"/>
<path d="M6449 8473 c0 -10 0 -223 0 -473 0 -480 1 -495 47 -552 20 -25 89
-68 109 -68 6 0 16 13 22 30 10 28 9 31 -22 50 -64 40 -69 63 -69 365 l-1 270
74 1 c79 1 89 7 106 61 6 22 4 22 -87 25 l-93 3 0 153 0 152 -42 0 c-34 0 -43
-4 -44 -17z"/>
<path d="M13934 7945 l0 -546 26 -6 c14 -4 104 -7 200 -7 l175 -1 65 32 c121
60 138 112 136 403 -2 215 -8 245 -53 295 -72 80 -227 101 -375 51 -40 -13
-76 -23 -79 -21 -3 2 -5 81 -5 175 l1 170 -45 0 -46 0 0 -545z m436 153 c76
-39 80 -58 78 -308 -3 -182 -6 -220 -20 -247 -20 -36 -67 -67 -118 -78 -40 -9
-220 -9 -259 0 l-27 6 0 294 0 295 55 21 c31 12 72 23 91 26 19 3 37 7 39 9
15 14 121 2 161 -18z"/>
<path d="M4790 8184 c-36 -7 -89 -21 -118 -33 -29 -12 -54 -21 -56 -21 -2 0
-1 11 2 25 4 24 2 25 -42 25 -37 0 -46 -3 -46 -17 -1 -26 -1 -659 -1 -718 l1
-51 43 1 42 0 2 310 c1 171 2 316 2 322 2 35 180 91 294 93 36 0 37 1 37 38
l0 39 -47 0 c-27 -1 -77 -6 -113 -13z"/>
<path d="M5257 8189 c-66 -10 -131 -44 -167 -87 -52 -63 -59 -102 -57 -352 2
-245 6 -263 65 -316 81 -72 307 -70 433 3 25 15 25 17 12 44 -17 35 -26 35
-88 8 -60 -27 -94 -33 -171 -33 -74 1 -129 30 -150 80 -15 35 -20 163 -6 165
31 4 88 8 222 14 85 4 169 8 185 10 17 2 37 3 46 4 14 1 16 18 14 139 -1 113
-5 145 -22 182 -49 110 -165 161 -316 139z m147 -87 c24 -11 56 -36 72 -57 26
-35 28 -43 29 -138 l0 -101 -50 -2 c-27 -1 -114 -5 -192 -8 l-143 -7 0 83 c0
97 13 153 43 187 52 57 163 77 241 43z"/>
<path d="M7023 8189 c-100 -18 -164 -64 -205 -148 -19 -40 -21 -61 -22 -260
-1 -229 7 -285 50 -332 72 -79 262 -93 414 -29 30 13 57 25 58 26 6 4 -30 75
-37 71 -101 -56 -206 -74 -298 -53 -37 9 -92 67 -94 99 -5 98 -4 137 6 138 19
2 90 7 220 14 182 10 229 13 240 14 10 1 11 179 1 259 -19 144 -162 230 -333
201z m175 -104 c55 -36 72 -77 76 -180 1 -47 0 -89 -3 -93 -4 -4 -31 -8 -61
-9 -30 0 -116 -4 -191 -8 l-135 -6 1 98 c2 107 16 149 64 191 36 32 76 42 147
38 45 -3 71 -10 102 -31z"/>
<path d="M8463 8178 c-65 -46 -67 -59 -70 -312 -1 -140 -7 -242 -14 -264 -16
-48 -73 -109 -117 -123 -92 -30 -208 3 -247 71 -19 33 -20 56 -23 333 l-3 297
-45 0 -44 0 1 -287 c0 -306 6 -356 45 -415 70 -108 296 -126 415 -35 l34 26
-3 -107 c-3 -132 -14 -166 -61 -200 -34 -25 -36 -29 -27 -60 11 -38 27 -37 91
6 45 31 73 74 79 123 3 19 5 217 5 441 l1 406 25 31 c25 29 25 31 10 61 -8 16
-17 30 -18 30 -1 0 -17 -10 -34 -22z"/>
<path d="M8820 8182 c-81 -23 -151 -96 -171 -177 -24 -93 -20 -373 6 -443 22
-61 78 -123 138 -153 62 -32 189 -35 257 -7 67 28 125 94 146 166 19 66 22
364 4 432 -22 83 -75 145 -150 176 -51 22 -165 25 -230 6z m200 -79 c40 -17
79 -63 93 -110 8 -28 12 -103 12 -217 -1 -164 -3 -177 -26 -222 -35 -68 -91
-97 -180 -92 -81 4 -138 37 -171 101 -20 38 -23 57 -24 211 -3 189 7 242 54
288 16 16 46 35 68 43 43 15 135 14 174 -2z"/>
<path d="M10310 8185 c-30 -6 -81 -21 -112 -33 l-58 -22 0 25 c0 23 -4 25 -45
25 l-45 0 2 -392 3 -392 40 0 40 -1 3 321 2 321 53 25 c69 34 117 47 202 54
39 4 71 8 73 9 7 6 11 65 4 66 -30 7 -117 3 -162 -6z"/>
<path d="M11183 8183 c-140 -40 -189 -147 -187 -403 1 -153 7 -191 40 -255 49
-97 151 -149 278 -141 84 5 133 24 179 69 69 70 86 146 82 372 -2 125 -6 159
-24 205 -25 67 -70 116 -128 142 -56 25 -172 30 -240 11z m219 -89 c20 -12 43
-39 58 -69 23 -46 25 -63 28 -213 6 -231 -14 -294 -105 -334 -104 -46 -228 -5
-275 90 -21 44 -22 60 -22 223 0 168 2 179 25 224 27 54 61 83 110 95 52 13
144 5 181 -16z"/>
<path d="M13018 8183 c-29 -8 -70 -23 -91 -33 -47 -25 -45 -25 -39 5 4 24 2
25 -42 25 -41 0 -46 -3 -47 -22 0 -29 0 -716 0 -743 1 -18 7 -21 44 -20 l42 1
2 333 c1 183 3 335 6 337 2 3 31 14 63 26 127 45 261 19 308 -62 20 -33 21
-56 26 -334 l5 -300 40 0 40 -1 0 310 -1 310 -28 52 c-30 55 -78 94 -136 111
-58 17 -135 19 -192 5z"/>
<path d="M15093 8190 c-85 -17 -149 -69 -186 -150 -19 -40 -21 -65 -21 -245
-1 -198 -1 -200 26 -257 28 -58 85 -112 143 -137 17 -7 66 -15 110 -16 106 -5
170 19 223 81 60 71 70 121 70 329 0 197 -8 237 -63 309 -54 71 -186 109 -302
86z m153 -81 c52 -13 98 -60 113 -116 6 -21 11 -117 11 -214 0 -167 -1 -177
-25 -225 -29 -58 -69 -84 -140 -91 -98 -10 -180 32 -216 112 -16 33 -19 67
-19 205 0 91 4 180 10 199 20 71 59 108 140 135 27 8 80 6 126 -5z"/>
<path d="M15767 8188 c-77 -16 -132 -62 -163 -133 -14 -33 -18 -75 -19 -230
-1 -112 3 -213 10 -247 13 -67 53 -131 98 -159 103 -63 262 -50 342 28 27 27
34 29 37 15 6 -23 1 -177 -7 -219 -7 -37 -59 -103 -81 -103 -17 0 -18 -11 -2
-45 10 -21 16 -25 37 -20 65 16 125 87 138 160 6 38 9 759 4 918 -1 25 -4 27
-44 27 -39 0 -43 -2 -42 -22 4 -44 -5 -48 -43 -23 -75 49 -182 71 -265 53z
m219 -109 c87 -41 89 -48 88 -266 -2 -197 -9 -235 -56 -288 -58 -66 -194 -84
-272 -36 -62 39 -71 72 -73 286 -1 105 1 202 4 217 8 40 62 97 108 113 55 19
127 10 201 -26z"/>
<path d="M5990 8157 c0 -27 4 -35 17 -33 26 4 114 -14 144 -30 36 -18 67 -64
74 -108 4 -20 4 -36 0 -36 -3 0 -23 9 -44 20 -114 57 -256 71 -345 32 -52 -24
-78 -49 -103 -102 -21 -46 -24 -295 -4 -354 19 -55 72 -110 134 -137 49 -23
62 -24 227 -22 96 1 186 4 200 5 l25 3 -1 285 c0 237 -3 295 -17 342 -32 106
-100 155 -232 165 l-75 6 0 -36z m150 -248 l85 -34 3 -202 c2 -112 -1 -203 -5
-204 -112 -15 -250 -15 -300 0 -95 27 -120 78 -122 253 -2 145 14 184 89 220
36 18 165 1 250 -33z"/>
<path d="M9339 8148 c0 -18 0 -152 0 -297 0 -303 8 -348 69 -402 57 -51 97
-63 197 -63 98 0 163 21 204 65 l21 23 0 -37 c0 -38 2 -39 45 -39 14 0 29 0
33 1 5 0 9 177 9 391 l-1 390 -43 0 -43 0 -1 -267 c0 -148 -3 -279 -5 -293 -8
-42 -51 -98 -99 -125 -35 -21 -59 -27 -107 -28 -83 -1 -131 22 -164 79 l-26
44 1 295 0 295 -44 0 c-44 0 -45 -1 -46 -32z"/>
<path d="M11645 8137 c13 -38 99 -321 161 -527 52 -172 65 -208 77 -212 7 -3
34 -4 61 -3 l50 1 78 309 c42 169 79 309 81 311 1 2 33 -122 71 -274 96 -392
78 -349 142 -347 30 0 58 5 62 10 5 6 23 55 40 110 150 477 202 648 197 655
-2 4 -22 8 -43 8 l-38 1 -21 -67 c-21 -68 -50 -161 -142 -462 -27 -91 -50
-162 -50 -159 -1 3 -10 44 -22 90 -11 46 -23 92 -25 102 -2 9 -6 25 -8 35 -2
9 -12 46 -21 82 -9 36 -18 72 -20 80 -3 15 -49 195 -66 261 -9 35 -11 36 -54
36 -25 0 -45 -1 -45 -3 0 -1 -21 -82 -46 -181 -25 -98 -64 -252 -87 -343 -31
-128 -42 -159 -48 -140 -4 14 -33 108 -64 210 -31 102 -74 243 -96 314 -21 71
-42 132 -45 135 -3 3 -25 7 -49 8 l-43 2 13 -42z"/>
</g>
</svg>
